<svg width="80" height="80" viewBox="0 0 496 496" xmlns="http://www.w3.org/2000/svg"><g fill="#1DA1F2"><path class="active-path" d="M488 431.99h-24v-264c0-4.426-3.586-8-8-8h-72v16h64v256H48v-256h64v-16H40c-4.414 0-8 3.574-8 8v264H8c-4.414 0-8 3.574-8 8v32a8.013 8.013 0 0 0 3.559 6.656l24 16A8.062 8.062 0 0 0 32 495.99h440c2.121 0 4.16-.84 5.656-2.344l16-16A7.964 7.964 0 0 0 496 471.99v-32c0-4.426-3.586-8-8-8zm-8 36.688-11.312 11.312H34.428l-18.426-12.281V447.99h464z" data-old_color="#000000" data-original="#000000"/><path class="active-path" d="M288 151.99h-16c0 13.23-10.77 24-24 24s-24-10.77-24-24h-16c0 22.055 17.945 40 40 40s40-17.945 40-40z" data-old_color="#000000" data-original="#000000"/><path class="active-path" d="m108.53 269.76-12.496 137.5a8.011 8.011 0 0 0 2.066 6.125 7.995 7.995 0 0 0 5.903 2.602h288c2.246 0 4.39-.946 5.902-2.602a8.046 8.046 0 0 0 2.066-6.125l-12.496-137.5c-2.367-26.02-22.898-47.25-48.832-50.496l-52.16-6.523c13.473-8.567 23.887-21.461 29.312-36.742h44.207c4.415 0 8-3.575 8-8v-48c0-4.426-3.585-8-8-8h-8v-8c0-57.344-46.656-104-104-104s-104 46.648-104 103.99v8h-8c-4.414 0-8 3.574-8 8v48a8 8 0 0 0 8 8h44.2c5.425 15.28 15.84 28.184 29.311 36.742l-52.16 6.523c-25.918 3.246-46.457 24.484-48.824 50.504zm5.688 114.23h45.784v16h-47.238zm221.79 16v-16h45.785l1.453 16zm-88-156.81-13.91-17.391 13.91-1.738 13.91 1.738zm-32.544-15.062 21.824 27.277-23.168 23.168-5.511-49.582zm65.086 0 6.856.855-5.512 49.582-23.168-23.168zm-64.543-148.13h-18.52c9.008-18.887 28.238-32 50.52-32 2.391 0 4.735.2 7.047.496-3.91 17.977-19.91 31.504-39.047 31.504zm54.48-27.258c12.305 5.418 22.262 15.145 28.04 27.258h-18.52c-7.497 0-13.754-5.2-15.48-12.16a55.6 55.6 0 0 0 5.96-15.098zm81.52 107.26h-32.473c.297-2.633.473-5.297.473-8v-24h32zm-192-56c0-48.52 39.48-88 88-88s88 39.48 88 88v8h-16v-8c0-39.703-32.305-72-72-72s-72 32.297-72 72v8h-16zm-16 56v-32h32v24c0 2.703.176 5.367.473 8zm48-8v-48c0-2.719.266-5.375.641-8h23.36c14.351 0 27.413-5.473 37.335-14.375 5.727 8.648 15.527 14.375 26.664 14.375h23.36c.374 2.625.64 5.281.64 8v48c0 30.871-25.121 56-56 56s-56-25.129-56-56zm.727 78.969 7.32 65.91a7.987 7.987 0 0 0 5.305 6.664 7.97 7.97 0 0 0 2.648.457c2.09 0 4.137-.824 5.657-2.344l34.344-34.344 34.344 34.344a8.02 8.02 0 0 0 5.656 2.344 7.97 7.97 0 0 0 2.648-.457 7.987 7.987 0 0 0 5.305-6.664l7.32-65.91 33.375 4.168c18.52 2.32 33.191 17.496 34.88 36.078l8.8 96.785h-44.328v-64h-16v96h-144v-96h-16v64H115.68l8.8-96.785c1.688-18.582 16.353-33.758 34.872-36.078z" data-old_color="#000000" data-original="#000000"/><path class="active-path" d="M220 135.99c6.617 0 12-5.383 12-12s-5.383-12-12-12-12 5.383-12 12 5.383 12 12 12zm0-16c2.207 0 4 1.8 4 4s-1.793 4-4 4-4-1.8-4-4 1.793-4 4-4zM276 135.99c6.617 0 12-5.383 12-12s-5.383-12-12-12-12 5.383-12 12 5.383 12 12 12zm0-16c2.207 0 4 1.8 4 4s-1.793 4-4 4-4-1.8-4-4 1.793-4 4-4z" data-old_color="#000000" data-original="#000000"/></g></svg>