<?xml version="1.0" encoding="UTF-8"?>
<svg width="80px" height="80px" viewBox="0 0 496 496" xmlns="http://www.w3.org/2000/svg">
<g fill="#1DA1F2">
<path class="active-path" d="m488 431.99h-24v-264c0-4.4258-3.5859-8-8-8h-72v16h64v256h-400v-256h64v-16h-72c-4.4141 0-8 3.5742-8 8v264h-24c-4.4141 0-8 3.5742-8 8v32c0 2.6719 1.3359 5.168 3.5586 6.6562l24 16c1.3125 0.87109 2.8672 1.3438 4.4414 1.3438h440c2.1211 0 4.1602-0.83984 5.6562-2.3438l16-16c1.5039-1.4961 2.3438-3.5273 2.3438-5.6562v-32c0-4.4258-3.5859-8-8-8zm-8 36.688-11.312 11.312h-434.26l-18.426-12.281v-19.719h464z" data-old_color="#000000" data-original="#000000"/>
<path class="active-path" d="m288 151.99h-16c0 13.23-10.77 24-24 24s-24-10.77-24-24h-16c0 22.055 17.945 40 40 40s40-17.945 40-40z" data-old_color="#000000" data-original="#000000"/>
<path class="active-path" d="m108.53 269.76-12.496 137.5c-0.19922 2.2383 0.54297 4.4609 2.0664 6.125 1.5117 1.6562 3.6562 2.6016 5.9023 2.6016h288c2.2461 0 4.3906-0.94531 5.9023-2.6016 1.5117-1.6641 2.2656-3.8789 2.0664-6.125l-12.496-137.5c-2.3672-26.02-22.898-47.25-48.832-50.496l-52.16-6.5234c13.473-8.5664 23.887-21.461 29.312-36.742h44.207c4.4141 0 8-3.5742 8-8v-48c0-4.4258-3.5859-8-8-8h-8v-8c0-57.344-46.656-104-104-104s-104 46.648-104 103.99v8h-8c-4.4141 0-8 3.5742-8 8v48c0 4.4219 3.5859 8 8 8h44.199c5.4258 15.281 15.84 28.184 29.312 36.742l-52.16 6.5234c-25.918 3.2461-46.457 24.484-48.824 50.504zm5.6875 114.23h45.785v16h-47.238zm221.79 16v-16h45.785l1.4531 16zm-88-156.81-13.91-17.391 13.91-1.7383 13.91 1.7383zm-32.543-15.062 21.824 27.277-23.168 23.168-5.5117-49.582zm65.086 0 6.8555 0.85547-5.5117 49.582-23.168-23.168zm-64.543-148.13h-18.52c9.0078-18.887 28.238-32 50.52-32 2.3906 0 4.7344 0.19922 7.0469 0.49609-3.9102 17.977-19.91 31.504-39.047 31.504zm54.48-27.258c12.305 5.418 22.262 15.145 28.039 27.258h-18.52c-7.4961 0-13.754-5.1992-15.48-12.16 2.6797-4.6562 4.7031-9.7188 5.9609-15.098zm81.52 107.26h-32.473c0.29688-2.6328 0.47266-5.2969 0.47266-8v-24h32zm-192-56c0-48.52 39.48-88 88-88s88 39.48 88 88v8h-16v-8c0-39.703-32.305-72-72-72s-72 32.297-72 72v8h-16zm-16 56v-32h32v24c0 2.7031 0.17578 5.3672 0.47266 8zm48-8v-48c0-2.7188 0.26562-5.375 0.64062-8h23.359c14.352 0 27.414-5.4727 37.336-14.375 5.7266 8.6484 15.527 14.375 26.664 14.375h23.359c0.375 2.625 0.64062 5.2812 0.64062 8v48c0 30.871-25.121 56-56 56s-56-25.129-56-56zm0.72656 78.969 7.3203 65.91c0.33594 3.0586 2.4023 5.6484 5.3047 6.6641 0.86328 0.30469 1.7617 0.45703 2.6484 0.45703 2.0898 0 4.1367-0.82422 5.6562-2.3438l34.344-34.344 34.344 34.344c1.5273 1.5195 3.5664 2.3438 5.6562 2.3438 0.88672 0 1.7852-0.15234 2.6484-0.45703 2.9023-1.0156 4.9688-3.6055 5.3047-6.6641l7.3203-65.91 33.375 4.168c18.52 2.3203 33.191 17.496 34.879 36.078l8.8008 96.785h-44.328v-64h-16v96h-144v-96h-16v64h-44.328l8.8008-96.785c1.6875-18.582 16.352-33.758 34.871-36.078z" data-old_color="#000000" data-original="#000000"/>
<path class="active-path" d="m220 135.99c6.6172 0 12-5.3828 12-12 0-6.6172-5.3828-12-12-12s-12 5.3828-12 12c0 6.6172 5.3828 12 12 12zm0-16c2.207 0 4 1.8008 4 4 0 2.1992-1.793 4-4 4s-4-1.8008-4-4c0-2.1992 1.793-4 4-4z" data-old_color="#000000" data-original="#000000"/>
<path class="active-path" d="m276 135.99c6.6172 0 12-5.3828 12-12 0-6.6172-5.3828-12-12-12s-12 5.3828-12 12c0 6.6172 5.3828 12 12 12zm0-16c2.207 0 4 1.8008 4 4 0 2.1992-1.793 4-4 4s-4-1.8008-4-4c0-2.1992 1.793-4 4-4z" data-old_color="#000000" data-original="#000000"/>
</g>
</svg>
