<?xml version="1.0"?>
<svg xmlns="http://www.w3.org/2000/svg" height="80px" viewBox="0 0 496 496" width="80px"><g><path d="m488 431.992188h-24v-264c0-4.425782-3.585938-8-8-8h-72v16h64v256h-400v-256h64v-16h-72c-4.414062 0-8 3.574218-8 8v264h-24c-4.414062 0-8 3.574218-8 8v32c0 2.671874 1.335938 5.167968 3.558594 6.65625l24 16c1.3125.871093 2.867187 1.34375 4.441406 1.34375h440c2.121094 0 4.160156-.839844 5.65625-2.34375l16-16c1.503906-1.496094 2.34375-3.527344 2.34375-5.65625v-32c0-4.425782-3.585938-8-8-8zm-8 36.6875-11.3125 11.3125h-434.261719l-18.425781-12.28125v-19.71875h464zm0 0" data-original="#000000" class="active-path" data-old_color="#000000" fill="#1DA1F2"/><path d="m288 151.992188h-16c0 13.230468-10.769531 24-24 24s-24-10.769532-24-24h-16c0 22.054687 17.945312 40 40 40s40-17.945313 40-40zm0 0" data-original="#000000" class="active-path" data-old_color="#000000" fill="#1DA1F2"/><path d="m108.527344 269.761719-12.496094 137.503906c-.199219 2.238281.542969 4.460937 2.066406 6.125 1.511719 1.65625 3.65625 2.601563 5.902344 2.601563h288c2.246094 0 4.390625-.945313 5.902344-2.601563 1.511718-1.664063 2.265625-3.878906 2.066406-6.125l-12.496094-137.503906c-2.367187-26.019531-22.898437-47.25-48.832031-50.496094l-52.160156-6.523437c13.472656-8.566407 23.886719-21.460938 29.3125-36.742188h44.207031c4.414062 0 8-3.574219 8-8v-48c0-4.425781-3.585938-8-8-8h-8v-8c0-57.34375-46.65625-104-104-104s-104 46.648438-104 103.992188v8h-8c-4.414062 0-8 3.574218-8 8v48c0 4.421874 3.585938 8 8 8h44.199219c5.425781 15.28125 15.839843 28.183593 29.3125 36.742187l-52.160157 6.523437c-25.917968 3.246094-46.457031 24.484376-48.824218 50.503907zm5.6875 114.230469h45.785156v16h-47.238281zm221.785156 16v-16h45.785156l1.453125 16zm-88-156.808594-13.910156-17.390625 13.910156-1.738281 13.910156 1.738281zm-32.542969-15.0625 21.824219 27.277344-23.167969 23.167968-5.511719-49.582031zm65.085938 0 6.855469.855468-5.511719 49.582032-23.167969-23.167969zm-64.542969-148.128906h-18.519531c9.007812-18.886719 28.238281-32 50.519531-32 2.390625 0 4.734375.199218 7.046875.496093-3.910156 17.976563-19.910156 31.503907-39.046875 31.503907zm54.480469-27.257813c12.304687 5.417969 22.261719 15.144531 28.039062 27.257813h-18.519531c-7.496094 0-13.753906-5.199219-15.480469-12.160157 2.679688-4.65625 4.703125-9.71875 5.960938-15.097656zm81.519531 107.257813h-32.472656c.296875-2.632813.472656-5.296876.472656-8v-24h32zm-192-56c0-48.519532 39.480469-88 88-88s88 39.480468 88 88v8h-16v-8c0-39.703126-32.304688-72-72-72s-72 32.296874-72 72v8h-16zm-16 56v-32h32v24c0 2.703124.175781 5.367187.472656 8zm48-8v-48c0-2.71875.265625-5.375.640625-8h23.359375c14.351562 0 27.414062-5.472657 37.335938-14.375 5.726562 8.648437 15.527343 14.375 26.664062 14.375h23.359375c.375 2.625.640625 5.28125.640625 8v48c0 30.871093-25.121094 56-56 56s-56-25.128907-56-56zm.726562 78.96875 7.320313 65.910156c.335937 3.058594 2.402344 5.648437 5.304687 6.664062.863282.304688 1.761719.457032 2.648438.457032 2.089844 0 4.136719-.824219 5.65625-2.34375l34.34375-34.34375 34.34375 34.34375c1.527344 1.519531 3.566406 2.34375 5.65625 2.34375.886719 0 1.785156-.152344 2.648438-.457032 2.902343-1.015625 4.96875-3.605468 5.304687-6.664062l7.320313-65.910156 33.375 4.167968c18.519531 2.320313 33.191406 17.496094 34.878906 36.078125l8.800781 96.785157h-44.328125v-64h-16v96h-144v-96h-16v64h-44.328125l8.800781-96.785157c1.6875-18.582031 16.351563-33.757812 34.871094-36.078125zm0 0" data-original="#000000" class="active-path" data-old_color="#000000" fill="#1DA1F2"/><path d="m220 135.992188c6.617188 0 12-5.382813 12-12 0-6.617188-5.382812-12-12-12s-12 5.382812-12 12c0 6.617187 5.382812 12 12 12zm0-16c2.207031 0 4 1.800781 4 4 0 2.199218-1.792969 4-4 4s-4-1.800782-4-4c0-2.199219 1.792969-4 4-4zm0 0" data-original="#000000" class="active-path" data-old_color="#000000" fill="#1DA1F2"/><path d="m276 135.992188c6.617188 0 12-5.382813 12-12 0-6.617188-5.382812-12-12-12s-12 5.382812-12 12c0 6.617187 5.382812 12 12 12zm0-16c2.207031 0 4 1.800781 4 4 0 2.199218-1.792969 4-4 4s-4-1.800782-4-4c0-2.199219 1.792969-4 4-4zm0 0" data-original="#000000" class="active-path" data-old_color="#000000" fill="#1DA1F2"/></g> </svg>
