<svg width="46" height="46" viewBox="0 0 512 512" xml:space="preserve" xmlns="http://www.w3.org/2000/svg"><path class="active-path" d="M491.73 112.97 259.26.74a7.503 7.503 0 0 0-6.521 0L20.269 112.97a7.5 7.5 0 0 0-4.239 6.754v272.55a7.5 7.5 0 0 0 4.239 6.754l232.47 112.23a7.504 7.504 0 0 0 6.522 0l232.47-112.23a7.5 7.5 0 0 0 4.239-6.754v-272.55a7.502 7.502 0 0 0-4.239-6.755zM256 15.827l215.22 103.9-62.387 30.118a7.434 7.434 0 0 0-1.27-.8l-213.76-103.19 62.195-30.025zm-79.133 38.505 214.9 103.75-44.015 21.249-214.82-103.7 43.926-21.291zm219.93 117.97v78.546l-41.113 19.848V192.15l41.113-19.848zm84.169 215.26-217.47 104.98v-255.89l51.873-25.042a7.5 7.5 0 1 0-6.522-13.508l-52.851 25.515-20.796-10.04c-3.731-1.803-8.214-.237-10.015 3.493s-.237 8.214 3.493 10.015l19.818 9.567v255.89l-217.47-104.98v-255.89l165.6 79.945a7.463 7.463 0 0 0 3.255.748 7.5 7.5 0 0 0 3.266-14.256l-162.37-78.386 74.505-35.968 225.29 108.76c.033.046.07.087.104.132v89.999a7.502 7.502 0 0 0 10.761 6.754l56.113-27.089a7.499 7.499 0 0 0 4.239-6.754v-90.495l69.169-33.392v255.89z" fill="#1DA1F2" data-old_color="#000000" data-original="#000000"/><path class="active-path" d="m92.926 358.48-34.115-16.469a7.5 7.5 0 0 0-6.522 13.508l34.115 16.469a7.463 7.463 0 0 0 3.255.748 7.5 7.5 0 0 0 6.759-4.241 7.499 7.499 0 0 0-3.492-10.015zM124.32 338.04l-65.465-31.604a7.501 7.501 0 0 0-6.521 13.509l65.465 31.604a7.477 7.477 0 0 0 3.255.748 7.5 7.5 0 0 0 3.266-14.257z" fill="#1DA1F2" data-old_color="#000000" data-original="#000000"/></svg>