<svg width="80" height="80" viewBox="0 0 512 512" xml:space="preserve" xmlns="http://www.w3.org/2000/svg"><path class="active-path" d="M278.33 459h-44.166c-5.522 0-10 4.478-10 10s4.478 10 10 10h44.166c5.522 0 10-4.478 10-10s-4.477-10-10-10zM359.07 75.321c-1.859-1.859-4.439-2.93-7.069-2.93s-5.21 1.07-7.07 2.93-2.93 4.44-2.93 7.07c0 2.641 1.069 5.21 2.93 7.07 1.86 1.87 4.44 2.93 7.07 2.93s5.209-1.059 7.069-2.93c1.86-1.86 2.931-4.44 2.931-7.07s-1.07-5.201-2.931-7.07z" fill="#1DA1F2" data-old_color="#000000" data-original="#000000"/><path class="active-path" d="M502 153.99c5.522 0 10-4.478 10-10V82.396c0-3.904-2.243-7.278-5.506-8.924-.049-.027-.093-.055-.147-.082l-150-72.394a9.996 9.996 0 0 0-8.693 0l-150 72.394a10 10 0 0 0 0 18.012l58.462 28.215v61.85c0 .469.038.932.102 1.388h-2.779c-18.374 0-33.323 14.949-33.323 33.324 0 18.374 14.949 33.323 33.323 33.323h3.23c3.039 28.346 18.479 53.031 40.773 68.514h-93.158a36.07 36.07 0 0 0-16.283 3.863v-147.58c0-8.979 7.305-16.283 16.283-16.283h25.832c5.522 0 10-4.478 10-10s-4.478-10-10-10h-25.832c-10.336 0-19.668 4.351-26.283 11.309-6.615-6.958-15.947-11.309-26.283-11.309H9.998c-5.522 0-10 4.478-10 10v219.01c0 5.522 4.478 10 10 10h11.997v48.972H9.998c-5.522 0-10 4.478-10 10v18c0 31.981 26.019 58 58 58h396c31.981 0 58-26.019 58-58v-18c0-5.522-4.478-10-10-10h-12.003v-147c0-5.522-4.478-10-10-10s-10 4.478-10 10v147h-428v-48.973h304c5.522 0 10-4.478 10-10v-32.021c47.581-1.963 86.321-38.76 91.332-85.506h3.23c18.374 0 33.323-14.949 33.323-33.323 0-18.375-14.949-33.324-33.323-33.324h-2.779c.064-.456.102-.918.102-1.388v-61.85l44.115-21.291v45.664c0 5.523 4.478 10 10 10zm-245.88 75.513h-2.677c-7.346 0-13.323-5.976-13.323-13.323s5.977-13.324 13.323-13.324h2.677v26.647zM20 158.016h131.72c8.979 0 16.283 7.305 16.283 16.283v147.58a36.06 36.06 0 0 0-16.283-3.863H20v-160zm472 287.99v8c0 20.953-17.047 38-38 38H58c-20.953 0-38-17.047-38-38v-8h472zM20 357.033V338.02h131.72c8.979 0 16.283 7.305 16.283 16.283 0 .948.141 1.862.387 2.73H20zm427.88-154.17h2.677c7.346 0 13.323 5.978 13.323 13.324 0 7.347-5.977 13.323-13.323 13.323h-2.677v-26.647zM336 357.043H187.61v-.001a9.965 9.965 0 0 0 .387-2.73c0-8.979 7.305-16.283 16.283-16.283H336v19.014zm91.883-117.82c.002 41.844-34.04 75.886-75.883 75.886s-75.885-34.042-75.885-75.886v-42.42l71.857 31.614a10.005 10.005 0 0 0 8.054 0l71.857-31.614v42.42zm.002-64.27L352 208.338l-75.885-33.386V129.28l71.538 34.526a9.993 9.993 0 0 0 8.694 0l71.538-34.526v45.673zm-47.76-82.547h78.148l-106.27 51.291-126.99-61.29 126.99-61.291 106.27 51.29h-78.148c-5.522 0-10 4.478-10 10 0 5.523 4.478 10 10 10z" fill="#1DA1F2" data-old_color="#000000" data-original="#000000"/><path class="active-path" d="M509.07 181.52c-1.859-1.859-4.439-2.93-7.069-2.93s-5.21 1.07-7.07 2.93-2.93 4.44-2.93 7.07 1.069 5.21 2.93 7.07c1.86 1.859 4.44 2.93 7.07 2.93s5.21-1.07 7.069-2.93c1.86-1.86 2.931-4.44 2.931-7.07s-1.07-5.209-2.931-7.07zM133.88 254.93c-1.87-1.86-4.44-2.93-7.07-2.93s-5.21 1.069-7.069 2.93c-1.87 1.87-2.931 4.44-2.931 7.07s1.061 5.21 2.931 7.069A10.014 10.014 0 0 0 126.81 272c2.63 0 5.21-1.061 7.07-2.931a10.056 10.056 0 0 0 2.93-7.069c0-2.63-1.069-5.21-2.93-7.07zM89 252.02H57c-5.522 0-10 4.478-10 10s4.478 10 10 10h32c5.522 0 10-4.478 10-10s-4.477-10-10-10zM126.81 204.01H57.003c-5.522 0-10 4.478-10 10s4.478 10 10 10h69.807c5.522 0 10-4.478 10-10s-4.478-10-10-10z" fill="#1DA1F2" data-old_color="#000000" data-original="#000000"/></svg>