<?xml version="1.0" encoding="UTF-8"?>
<svg width="80px" height="80px" enable-background="new 0 0 512 512" version="1.1" viewBox="0 0 512 512" xml:space="preserve" xmlns="http://www.w3.org/2000/svg">
	
		<path class="active-path" d="m278.33 459h-44.166c-5.522 0-10 4.478-10 10s4.478 10 10 10h44.166c5.522 0 10-4.478 10-10s-4.477-10-10-10z" fill="#1DA1F2" data-old_color="#000000" data-original="#000000"/>
	

	
		<path class="active-path" d="m359.07 75.321c-1.859-1.859-4.439-2.93-7.069-2.93s-5.21 1.07-7.07 2.93-2.93 4.44-2.93 7.07c0 2.641 1.069 5.21 2.93 7.07 1.86 1.87 4.44 2.93 7.07 2.93s5.209-1.059 7.069-2.93c1.86-1.86 2.931-4.44 2.931-7.07s-1.07-5.201-2.931-7.07z" fill="#1DA1F2" data-old_color="#000000" data-original="#000000"/>
	

	
		<path class="active-path" d="m502 153.99c5.522 0 10-4.478 10-10v-61.594c0-3.904-2.243-7.278-5.506-8.924-0.049-0.027-0.093-0.055-0.147-0.082l-150-72.394c-2.746-1.326-5.947-1.326-8.693 0l-150 72.394c-3.456 1.668-5.653 5.168-5.653 9.006s2.197 7.338 5.653 9.006l58.462 28.215v61.85c0 0.469 0.038 0.932 0.102 1.388h-2.779c-18.374 0-33.323 14.949-33.323 33.324 0 18.374 14.949 33.323 33.323 33.323h3.23c3.039 28.346 18.479 53.031 40.773 68.514h-93.158c-5.852 0-11.384 1.393-16.283 3.863v-147.58c0-8.979 7.305-16.283 16.283-16.283h25.832c5.522 0 10-4.478 10-10s-4.478-10-10-10h-25.832c-10.336 0-19.668 4.351-26.283 11.309-6.615-6.958-15.947-11.309-26.283-11.309h-141.72c-5.522 0-10 4.478-10 10v219.01c0 5.522 4.478 10 10 10h11.997v48.972h-11.997c-5.522 0-10 4.478-10 10v18c0 31.981 26.019 58 58 58h396c31.981 0 58-26.019 58-58v-18c0-5.522-4.478-10-10-10h-12.003v-147c0-5.522-4.478-10-10-10s-10 4.478-10 10v147h-428v-48.973h304c5.522 0 10-4.478 10-10v-32.021c47.581-1.963 86.321-38.76 91.332-85.506h3.23c18.374 0 33.323-14.949 33.323-33.323 0-18.375-14.949-33.324-33.323-33.324h-2.779c0.064-0.456 0.102-0.918 0.102-1.388v-61.85l44.115-21.291v45.664c0 5.523 4.478 10 10 10zm-245.88 75.513h-2.677c-7.346 0-13.323-5.976-13.323-13.323s5.977-13.324 13.323-13.324h2.677v26.647zm-236.12-71.487h131.72c8.979 0 16.283 7.305 16.283 16.283v147.58c-4.899-2.471-10.432-3.863-16.283-3.863h-131.72v-160zm472 287.99v8c0 20.953-17.047 38-38 38h-396c-20.953 0-38-17.047-38-38v-8h472zm-472-88.973v-19.013h131.72c8.979 0 16.283 7.305 16.283 16.283 0 0.948 0.141 1.862 0.387 2.73h-148.39zm427.88-154.17h2.677c7.346 0 13.323 5.978 13.323 13.324 0 7.347-5.977 13.323-13.323 13.323h-2.677v-26.647zm-111.88 154.18h-148.39v-1e-3c0.247-0.869 0.387-1.783 0.387-2.73 0-8.979 7.305-16.283 16.283-16.283h131.72v19.014zm91.883-117.82c2e-3 41.844-34.04 75.886-75.883 75.886s-75.885-34.042-75.885-75.886v-42.42l71.857 31.614c1.283 0.564 2.655 0.847 4.027 0.847s2.744-0.282 4.027-0.847l71.857-31.614v42.42zm2e-3 -64.27-75.885 33.385-75.885-33.386v-45.672l71.538 34.526c1.373 0.663 2.86 0.994 4.347 0.994s2.974-0.331 4.347-0.994l71.538-34.526v45.673zm-47.76-82.547h78.148l-106.27 51.291-126.99-61.29 126.99-61.291 106.27 51.29h-78.148c-5.522 0-10 4.478-10 10 0 5.523 4.478 10 10 10z" fill="#1DA1F2" data-old_color="#000000" data-original="#000000"/>
	

	
		<path class="active-path" d="m509.07 181.52c-1.859-1.859-4.439-2.93-7.069-2.93s-5.21 1.07-7.07 2.93-2.93 4.44-2.93 7.07 1.069 5.21 2.93 7.07c1.86 1.859 4.44 2.93 7.07 2.93s5.21-1.07 7.069-2.93c1.86-1.86 2.931-4.44 2.931-7.07s-1.07-5.209-2.931-7.07z" fill="#1DA1F2" data-old_color="#000000" data-original="#000000"/>
	

	
		<path class="active-path" d="m133.88 254.93c-1.87-1.86-4.44-2.93-7.07-2.93s-5.21 1.069-7.069 2.93c-1.87 1.87-2.931 4.44-2.931 7.07s1.061 5.21 2.931 7.069c1.859 1.87 4.43 2.931 7.069 2.931 2.63 0 5.21-1.061 7.07-2.931 1.86-1.859 2.93-4.43 2.93-7.069 0-2.63-1.069-5.21-2.93-7.07z" fill="#1DA1F2" data-old_color="#000000" data-original="#000000"/>
	

	
		<path class="active-path" d="m89 252.02h-32c-5.522 0-10 4.478-10 10s4.478 10 10 10h32c5.522 0 10-4.478 10-10s-4.477-10-10-10z" fill="#1DA1F2" data-old_color="#000000" data-original="#000000"/>
	

	
		<path class="active-path" d="m126.81 204.01h-69.807c-5.522 0-10 4.478-10 10s4.478 10 10 10h69.807c5.522 0 10-4.478 10-10s-4.478-10-10-10z" fill="#1DA1F2" data-old_color="#000000" data-original="#000000"/>
	
 </svg>
