<svg width="46" height="46" viewBox="0 0 512 512" xml:space="preserve" xmlns="http://www.w3.org/2000/svg"><path class="active-path" d="M511.9 435.93v-33.439a7.5 7.5 0 0 0-15 0v26.999H15.09V210a7.5 7.5 0 0 0-15 0L.008 454.99c0 10.752 8.748 19.499 19.499 19.499h472.98c10.752 0 19.499-8.748 19.499-19.499v-17.999c0-.361-.034-.713-.083-1.06zm-15 19.061a4.503 4.503 0 0 1-4.498 4.498H19.582a4.503 4.503 0 0 1-4.498-4.498v-10.502h481.81v10.502z" fill="#1DA1F2" data-old_color="#000000" data-original="#000000"/><g fill="#1DA1F2"><path class="active-path" d="M511.98 57.009c0 .353.047-.34 0 0z" data-old_color="#000000" data-original="#000000"/><path class="active-path" d="M492.48 37.509H19.5c-10.751 0-19.499 8.748-19.499 19.5l.083 120.5a7.5 7.5 0 0 0 15 0V162.51h215.27l-100.13 100.13c-.081.081-.152.169-.229.252-.057.063-.116.124-.171.188-.197.23-.382.469-.548.719-.014.021-.025.043-.038.064a7.673 7.673 0 0 0-.413.727c-.039.077-.074.155-.11.234a7.41 7.41 0 0 0-.277.693c-.02.058-.044.115-.062.174a7.576 7.576 0 0 0-.221.894c-.004.023-.013.045-.017.068l-13.444 77.061c-.009.053-.01.106-.018.159a9.045 9.045 0 0 0-.035.274c-.003.026-.002.052-.004.079-.026.248-.04.496-.041.743l.001.125c.003.254.018.507.047.758l.013.102c.033.257.077.51.136.761.006.028.014.055.021.082.063.255.138.506.227.753l.025.065c.093.25.198.495.317.734l.027.051c.123.241.257.476.406.704l.028.04c.152.229.315.451.493.664l.026.03c.135.16.267.321.416.47a7.5 7.5 0 0 0 6.591 2.086l77.13-13.436c.308-.055.612-.131.912-.225.052-.016.101-.036.152-.053.251-.084.497-.183.739-.295.06-.028.12-.054.179-.083a7.433 7.433 0 0 0 1.538-1.013c.068-.058.133-.12.199-.18.083-.076.169-.145.249-.225l26.366-26.366a7.5 7.5 0 0 0 0-10.606 7.5 7.5 0 0 0-10.606 0l-21.062 21.062-10.607-10.607 116.67-116.67 10.607 10.607-72.148 72.148a7.5 7.5 0 0 0 0 10.606 7.5 7.5 0 0 0 10.606 0l72.458-72.458a7.487 7.487 0 0 0 3.226.739c1.989 0 3.897-.79 5.303-2.197l32.526-32.526a7.5 7.5 0 0 0 0-10.606l-5.303-5.303 2.198-2.198h132.2v207.49a7.5 7.5 0 0 0 15 0l.083-312.99c-.003-10.752-8.751-19.5-19.502-19.5zM15.08 57.008a4.503 4.503 0 0 1 4.498-4.498h161.41v64.996H15.078V57.008zm0 90.497v-14.999h238.28a7.499 7.499 0 0 0-.862 7.848l-7.152 7.152H15.076zm247.72 3.763 10.607 10.607-116.67 116.67-10.607-10.606 116.67-116.67zm-131.49 184.51 1.985-11.379 9.401 9.397-11.386 1.982zm29.454-5.129-24.323-24.311 3.993-22.888 43.214 43.214-22.884 3.985zm17.188-30.893-10.606-10.607 116.67-116.67 10.606 10.606-116.67 116.67zm152.02-102.53-60.102-60.102 21.915-21.915c.004-.005-.001-.001.004-.005l60.102 60.101-21.919 21.921zm30.758-51.971-8.839 8.839-38.889-38.889 8.839-8.839c4.874-4.874 12.803-4.874 17.677 0l21.212 21.212c4.874 4.874 4.874 12.803 0 17.677zm136.16 2.247H377.05a27.638 27.638 0 0 0 2.05-14.999h117.79v14.999zm0-29.998H371.84c-.168-.177-.332-.358-.505-.532L350.123 95.76c-5.194-5.194-12.099-8.055-19.444-8.055-7.346 0-14.25 2.86-19.444 8.055l-8.839 8.839-5.303-5.303a7.5 7.5 0 0 0-10.606 0l-18.208 18.208h-72.293V52.507h296.41a4.503 4.503 0 0 1 4.498 4.498v60.499z" data-old_color="#000000" data-original="#000000"/></g><path class="active-path" d="M46.998 62.508c-12.406 0-22.499 10.093-22.499 22.499s10.093 22.499 22.499 22.499 22.499-10.093 22.499-22.499-10.092-22.499-22.499-22.499zm0 29.999c-4.136 0-7.5-3.364-7.5-7.5s3.364-7.5 7.5-7.5 7.5 3.364 7.5 7.5-3.364 7.5-7.5 7.5zM98.996 62.508c-12.406 0-22.499 10.093-22.499 22.499s10.093 22.499 22.499 22.499 22.499-10.093 22.499-22.499-10.093-22.499-22.499-22.499zm0 29.999c-4.136 0-7.5-3.364-7.5-7.5s3.364-7.5 7.5-7.5 7.5 3.364 7.5 7.5-3.364 7.5-7.5 7.5zM149.99 62.508c-12.406 0-22.499 10.093-22.499 22.499s10.093 22.499 22.499 22.499 22.499-10.093 22.499-22.499-10.093-22.499-22.499-22.499zm0 29.999c-4.136 0-7.5-3.364-7.5-7.5s3.364-7.5 7.5-7.5 7.5 3.364 7.5 7.5-3.364 7.5-7.5 7.5zM389.98 358.81H121.99a7.5 7.5 0 0 0 0 15h267.99a7.5 7.5 0 0 0 0-15zM326.79 161.52l-21.212-21.212a7.5 7.5 0 0 0-10.606 0 7.5 7.5 0 0 0 0 10.606l21.212 21.212c1.464 1.464 3.384 2.197 5.303 2.197s3.839-.732 5.303-2.197a7.501 7.501 0 0 0 0-10.606z" fill="#1DA1F2" data-old_color="#000000" data-original="#000000"/></svg>